<svg width="24" height="24" viewBox="0 0 24 24" fill="none" xmlns="http://www.w3.org/2000/svg">
<rect width="24" height="24" rx="2" fill="#F3AC49"/>
<path fill-rule="evenodd" clip-rule="evenodd" d="M11.8 6H17.8C18.1182 6 18.4235 6.12643 18.6485 6.35147C18.8735 6.57652 19 6.88174 19 7.2V13.2C19 13.5183 18.8735 13.8235 18.6485 14.0485C18.4235 14.2736 18.1182 14.4 17.8 14.4H16.6V9.60001C16.6 9.28175 16.4735 8.97652 16.2485 8.75148C16.0235 8.52644 15.7182 8.40001 15.4 8.40001H10.6V7.2C10.6 6.88174 10.7264 6.57652 10.9514 6.35147C11.1765 6.12643 11.4817 6 11.8 6ZM8.19994 9.60002H14.2C14.8618 9.60002 15.4 10.1382 15.4 10.8V16.8C15.4 17.4618 14.8618 18 14.2 18H8.19994C7.53814 18 6.99994 17.4618 6.99994 16.8V10.8C6.99994 10.1382 7.53814 9.60002 8.19994 9.60002Z" fill="white"/>
</svg>
