<svg width="24" height="24" viewBox="0 0 24 24" fill="none" xmlns="http://www.w3.org/2000/svg">
<circle cx="12" cy="12" r="12" fill="#98C93C"/>
<path fill-rule="evenodd" clip-rule="evenodd" d="M13.7499 17.25V13.7499H17.25C18.2165 13.7499 19 12.9664 19 11.9999C19 11.0336 18.2165 10.2501 17.25 10.2501H13.7499V6.75003C13.7499 5.78351 12.9666 5 12.0001 5C11.0334 5 10.2501 5.78351 10.2501 6.75003V10.2501H6.75003C5.78351 10.2501 5 11.0336 5 11.9999C5 12.9664 5.78351 13.7499 6.75003 13.7499H10.2501V17.25C10.2501 18.2165 11.0334 19 12.0001 19C12.9666 19 13.7499 18.2165 13.7499 17.25Z" fill="white"/>
</svg>
