<svg width="14" height="14" viewBox="0 0 14 14" fill="none" xmlns="http://www.w3.org/2000/svg">
<path fill-rule="evenodd" clip-rule="evenodd" d="M12.25 5.25009H8.74991V1.75003C8.74991 0.78351 7.9664 0 6.99988 0C6.0336 0 5.25009 0.78351 5.25009 1.75003V5.25009H1.75003C0.783511 5.25009 0 6.03336 0 6.99988C0 7.96664 0.783511 8.74991 1.75003 8.74991H5.25009V12.25C5.25009 13.2165 6.0336 14 6.99988 14C7.9664 14 8.74991 13.2165 8.74991 12.25V8.74991H12.25C13.2165 8.74991 14 7.96664 14 6.99988C14 6.03336 13.2165 5.25009 12.25 5.25009Z" fill="white"/>
</svg>
